<svg xmlns="http://www.w3.org/2000/svg" xmlns:xlink="http://www.w3.org/1999/xlink" xmlns:inkscape="http://www.inkscape.org/namespaces/inkscape" version="1.1" width="222.045" height="160.991" viewBox="190 20 20 300">
<g clip-path="url(#clip_1)">
<path transform="matrix(1,0,0,-1,0,141.60179)" d="M0 0C0-13.493 10.602-23.389 24.996-23.389 39.389-23.389 49.992-13.493 49.992 0 49.992 13.494 39.389 23.389 24.996 23.389 10.602 23.389 0 13.494 0 0M12.852 0C12.852 7.775 18.185 12.852 24.996 12.852 31.806 12.852 37.139 7.775 37.139 0 37.139-7.775 31.806-12.852 24.996-12.852 18.185-12.852 12.852-7.775 12.852 0M298.468 22.49V13.3H311.062 319.8C324.042 13.3 326.227 11.824 326.227 8.996 326.227 6.104 324.042 4.626 319.8 4.626H316.643V4.622H298.468V-4.181H311.062V-4.176H321.729C326.097-4.176 328.411-5.654 328.411-8.739 328.411-11.824 326.097-13.301 321.729-13.301H311.062V-13.291H298.468V-22.489H322.757C334.836-22.489 341.263-17.927 341.263-10.153 341.263-4.69 338.114-.835 333.038 .964 336.893 2.956 339.078 6.425 339.078 10.731 339.078 17.671 333.295 22.49 321.471 22.49ZM274.116-22.489H286.838V22.491H274.116ZM223.996 22.49V12.469H240.101V12.467H243.786C249.056 12.467 251.689 10.024 251.689 5.848 251.689 1.735 249.056-.707 243.786-.707H236.718V-.703H223.996V-22.489H236.718V-10.538H243.659L251.82-22.489H265.441L255.739-8.353C261.33-5.654 264.542-.771 264.542 5.848 264.542 16.128 256.831 22.49 244.557 22.49ZM176.383 22.49V12.402H190.197V-22.489H202.919V12.402H216.671V22.49ZM89.573 22.49V15.028L102.039 .173V22.49ZM59.244 22.49V16.444L91.912-22.489H102.039V-16.363L69.436 22.49ZM59.244-22.489H71.709V-14.949L59.244-.092Z" fill="#4fa1d9"/>
<path transform="matrix(1,0,0,-1,0,164.991)" d="M350.452 18.514H386.04499V28.265H350.452Z" fill="#a91d36"/>
<path transform="matrix(1,0,0,-1,0,164.991)" d="M350.452 36.127H385.772V45.878H350.452Z" fill="#a91d36"/>
<path transform="matrix(1,0,0,-1,0,164.991)" d="M385.771 10.652H350.451V.9000006H385.771Z" fill="#a91d36"/>
<path transform="matrix(1,0,0,-1,0,164.991)" d="M113.47 18.514H149.063V28.265H113.47Z" fill="#a91d36"/>
<path transform="matrix(1,0,0,-1,0,164.991)" d="M113.47 36.127H148.79001V45.878H113.47Z" fill="#a91d36"/>
<path transform="matrix(1,0,0,-1,0,164.991)" d="M148.789 10.652H113.469V.9000006H148.789Z" fill="#a91d36"/>
</g>
</svg>
