<svg width="305" height="244" viewBox="0 0 305 244" fill="none" xmlns="http://www.w3.org/2000/svg">
<path d="M199.447 8H106.302L10 151.871L68.4128 235.665H234.179L295.749 151.871L199.447 8Z" fill="#4EA7F0"/>
<path d="M268.812 112.819L176.91 235.428L232.368 237L295.749 152.117L268.812 112.819Z" fill="#AB102B"/>
<path d="M139.522 181.889L231.005 54.067L265.706 106.143L172.645 227.653L139.522 181.889Z" fill="#EAC646"/>
<path d="M139.522 181.889L231.005 54.067L265.706 106.143L172.645 227.653L139.522 181.889Z" fill="#AB102B"/>
<path d="M191.539 8H172.617L130.044 66.388H67.3926L56.7347 82.1686H130.044L164.733 129.51L136.351 168.962L109.545 131.088H92.2006L164.733 233.662H183.655L270.379 115.308L260.918 101.105L174.194 221.037L145.812 181.586L234.113 60.0758L224.652 45.8733L174.194 116.886L144.235 74.2783L191.539 8Z" fill="#192851"/>
<path d="M197.933 12.6735H186.87L144.195 74.6121L174.225 117.493L221.641 50.7896L197.933 12.6735Z" fill="#AB102B"/>
<path d="M199.447 8H106.302L10 151.871L68.4128 235.665H234.179L295.749 151.871L199.447 8Z" stroke="#192851" stroke-width="15"/>
</svg>
